<svg id="_ÎÓÈ_1" data-name="—ÎÓÈ_1" xmlns="http://www.w3.org/2000/svg" viewBox="0 0 600 600"><defs><style>.cls-1{fill:#020202;}.cls-2{fill:#ef4136;}.cls-3{fill:#212121;}.cls-4{fill:#ff7864;}.cls-5{fill:#939598;}.cls-6{fill:#414042;}.cls-7{fill:#897575;}.cls-8{fill:#fff;}.cls-9{fill:#e6e7e8;}.cls-10{fill:#808285;}.cls-11{fill:#d1d3d4;}.cls-12{fill:#ff4136;}.cls-13{fill:#795353;}</style></defs><title>safari-pinned-tab(color)</title><rect class="cls-1" width="600" height="600"/><path class="cls-2" d="M271.3,406.24,480,320.61l33.19-15,24.72-8.92c-6.44-21.21-12.44-42.37-23.94-60.78l-9.35,3.41-13,4L478,248.36l-15.23,4.48-22.28,8.09-55.9,17.74,69.14-26.27,15.68-5.23,17.91-6.66L501,235.13l10.21-3.5c-9.57-14.66-19-29.85-31.37-42.16-15.05-15-33.61-26.53-52.06-37.35l-14.74,3.35-35.74,12.66-27.22,8L319.6,186.53l-37,10.5-37.29,11.54,58.54-22.21L330.71,175l27.82-9.51,24.36-11.82,32.18-11.12c-25.81-12.64-57.84-20.23-87.7-23.32l-16.7,5.89-18.1,5.61-22.44,8-62.29,20,47.76-18.23,17.24-5.91,13-4.83,14.53-5.66,16.18-5.75q-7.59-.45-15.3-.46c-16.77,0-32,.2-47.87,3.34-30.83,6.11-60.75,19.32-86.38,35.61l29.13-9.28,15.3-4,29.93-9-43.09,18.15-18.2,6.58-14.69,6.66-23.65,8.27c-11.59,9.47-21.25,20.07-31,31.43l21.86-6.37,15.88-5.49,17.77-5,14.81-5.22,17.26-5.43,40.59-13.55L292,148.65l-36.33,14.1L221.33,175.6,196,185.89l-23.2,7.93-23.75,10.3-24.69,8.46L92.62,225a245,245,0,0,0-25.29,46.31c-7.95,18.95-10.9,39.23-14,60.2l28.29-9.46,29.61-7.53L141,304.62l39.46-10.4L293,261.2,192,302.64l-32.52,14.9L129,328.47,89,342.92,50.75,360.59c-.08,2.62-1.28,12.77-1.28,15.41,0,38.7,9.93,67.83,25.59,100.55H527.43c15.67-32.72,27.17-69.06,27.17-107.76,0-14.78-3.2-29.39-6.49-43.78l-32.91,8.5-42.72,13.7Z"/><path class="cls-1" d="M432.43,329.8s2.2-4.63,6-6.42,22.61-.67,22.61-.67,6.59,1.41,6.59,8.06-9.24,8.14-9.24,8.14l-26,.37Z"/><path class="cls-3" d="M434.09,330.21c.53-1,2.36-4.06,5.08-5.32.56-.26,2.68-.87,10.31-.87,5.19,0,10.43.29,11.36.34.76.2,5.18,1.57,5.18,6.41s-6.82,6.29-7.75,6.48l-24.18.34Z"/><path class="cls-4" d="M439.53,337.52l13.28-13.46-1.25,0L439,337.52Z"/><path class="cls-5" d="M434.09,337.17,447.9,324l-1.17,0-12.64,12.27Z"/><path class="cls-6" d="M463.8,325.9a7.77,7.77,0,0,0-1-.71l-12.16,12.17.74,0Z"/><path class="cls-6" d="M458.57,324.25l-1.21-.05L442,337.48l3.34-.05Z"/><path class="cls-1" d="M167.82,329.8s-2.2-4.63-6-6.42-22.61-.67-22.61-.67-6.59,1.41-6.59,8.06,9.25,8.14,9.25,8.14l26,.37Z"/><path class="cls-3" d="M142,337.25c-.93-.18-7.75-1.67-7.75-6.48s4.4-6.21,5.17-6.41,6.17-.34,11.36-.34c7.64,0,9.76.61,10.32.87,2.71,1.26,4.54,4.33,5.08,5.32v7.38Z"/><path class="cls-6" d="M137.09,335.35,149.2,324l-1.35,0-11.07,11.09Z"/><path class="cls-6" d="M154.76,324.09l-1.34,0-12.18,13,.67.15Z"/><path class="cls-5" d="M164.25,327.43a11.28,11.28,0,0,0-.83-.87L152.58,337.4h.83Z"/><path class="cls-4" d="M147.48,337.32l12.71-12.7c-.25-.06-.55-.11-.92-.17l-14.81,12.83Z"/><path class="cls-1" d="M477.45,421.43c-.55-28.91-3.58-42.58-3.6-42.72l0-.25L467.5,371H132.6l-6.41,7.71,0,.25c0,.14-3.05,13.81-3.6,42.72s.48,45.63.48,45.8l0,1.1,7.35,8.15h339l7.56-8.35,0-1.1C477,467.06,478,450.29,477.45,421.43Z"/><polygon class="cls-7" points="469.18 384.31 474.01 392.25 472.35 379.64 468.84 376.35 469.18 384.31"/><polygon class="cls-7" points="131.11 383.83 126.28 391.78 127.94 379.17 131.45 375.88 131.11 383.83"/><path class="cls-8" d="M465.36,406.5c.71-5.13,4.84-18.16,5-27.48.06-3.69-2.95-7.51-3.62-9.06-1.87-4.35-2.34-9.77-9.82-17.84s-20.19-11-20.19-11-21.27-61.84-45.61-69.56-70.64-5.27-91.09-5.27-66.75-2.45-91.09,5.27-45.61,69.56-45.61,69.56-12.71,2.91-20.19,11-8,13.49-9.83,17.84c-.66,1.55-3.67,5.37-3.61,9.06.13,9.32,4.26,22.35,5,27.48,1,7.17,2.09,12.93,2.43,17.76s-1.62,13.2-.81,18.27,1.8,9.26,4.87,10.8,28.12,6.44,28.12,6.44,7.66-9.7,15.87-8.58,24.88,11.27,41.46,11.66L300,464.57h0l73.42-1.72c16.58-.39,33.26-10.55,41.46-11.66s15.87,8.58,15.87,8.58,25.06-4.89,28.12-6.44,4.06-5.74,4.87-10.8-1.15-13.45-.81-18.27S464.38,413.67,465.36,406.5Z"/><path class="cls-9" d="M465.24,406.47c.71-5.14,4.83-18.16,5-27.48,0-2.38-3-5.9-4.13-5.76-1.3.16-6.14,8.47-6.37,7.91-.58-1.34,2.79-8.09,2.32-13.91-.28-3.59-3.23-7.44-8.95-12.44-8.44-7.4-28.76-6-29.22-9.2s2.56-8.27,2.14-14.34c-1.31-19-17.84-51.71-36.1-57.5-24.29-7.7-69.39-5-89.9-5s-65.61-2.7-89.9,5c-18.26,5.79-34.79,38.5-36.1,57.5-.42,6.07,2.59,11.15,2.14,14.34s-20.78,1.8-29.22,9.2c-5.72,5-8.67,8.85-8.95,12.44-.47,5.82,2.9,12.57,2.32,13.91-.23.56-5.07-7.75-6.37-7.91-1.14-.14-4.17,3.38-4.13,5.76.14,9.32,4.27,22.34,5,27.48,1,7.17,2.09,12.93,2.43,17.75s-1.62,13.21-.81,18.27,1.81,9.26,4.87,10.81,28.12,6.43,28.12,6.43,7.67-9.69,15.87-8.58,24.88,11.28,41.46,11.67l73.3,1.71,73.3-1.71c16.58-.39,33.26-10.55,41.46-11.67s15.87,8.58,15.87,8.58,25.06-4.89,28.12-6.43,4.06-5.75,4.87-10.81-1.15-13.44-.81-18.27S464.26,413.64,465.24,406.47Z"/><path class="cls-10" d="M460.61,424.38c0-3.56.19-7.32-3.76-11.44-2.55-2.65-6.82-2.05-7.93-11.06-.27-2.2-2.42-6.26-2.57-6.65-1.82-4.68-1.33-16.92-1.53-18-.85-4.67-8.34-11.95-8.34-11.95s-13.61,10.27-37.24.58C375.07,356,320.45,350.4,300,350.4s-54.53,2.67-78,13.09-56.47,1.8-56.47,1.8-10.47.95-10.27,11.95a121.22,121.22,0,0,1-.39,13,50.84,50.84,0,0,1-1.48,6.42s-2.07,3.09-2.33,5.25c-1.11,9-5.38,8.41-7.93,11.06-4,4.12-3.76,7.88-3.76,11.44,0,4.84-3.82,13.12-3,18.18s1.81,9.26,4.87,10.81,28.12,6.43,28.12,6.43,7.67-9.69,15.87-8.58,24.88,11.28,41.46,11.67L300,464.6l73.3-1.71c16.58-.39,33.26-10.55,41.46-11.67s15.87,8.58,15.87,8.58,25.06-4.89,28.12-6.43,4.06-5.75,4.87-10.81S460.62,429.22,460.61,424.38Z"/><path class="cls-6" d="M439.16,453.69a20.23,20.23,0,0,1-2.68-1.78l-2.5-2.25-3.13-2.49-4.1-2.82-4.39-2.46-4.05-1.69-3.49-1-3.28-.39-13.26,1L373,442l-40.77,1.42-32.14.61L268,443.43,227.22,442,202,439.88l-13.25-1-3.29.39-3.48,1-4.05,1.69-4.39,2.46-4.1,2.82-3.13,2.49-2.5,2.25a20,20,0,0,1-2.69,1.78c-2.83,1.63-22.25-2.71-22.25-2.71l2.69,2.44,17.67,4.25,10.18,2.06s7.67-9.69,15.87-8.58,24.88,11.28,41.46,11.67l73.42,1.71,73.42-1.71c16.59-.39,33.26-10.55,41.47-11.67s15.86,8.58,15.86,8.58l10.18-2.06,17.67-4.25,2.69-2.44S442,455.32,439.16,453.69Z"/><path class="cls-11" d="M438.81,394.91c-5.84-1.3-14.25-2.11-14.25-2.11L410,391.27l-29.14-2.2-42.25-2.46L300,385.8l-38.61.81-42.26,2.46L190,391.27l-14.55,1.53s-8.41.81-14.25,2.11-7.74,9.47-3.49,9L182.24,401l16.87-1.53,20.75-1.42,24.3-1.07,25.38-.56,30.46-.18,30.46.18,25.38.56,24.3,1.07,20.75,1.42L417.76,401l24.54,2.87C446.54,404.38,444.64,396.21,438.81,394.91Z"/><path class="cls-1" d="M428.13,352.52c-10.54-3.52-35.11-3.26-44.73-3.69s-48.62-5.62-83.4-5.62-73.78,5.19-83.4,5.62-34.19.17-44.73,3.69-20.38,14.32-19.47,20.07,4.91,5.92,7.66,6.26,57.05.51,62.83-5.49,4.07-6,8-11.79,56.59-7.72,69.09-7.72,65.14,1.91,69.09,7.72,2.26,5.79,8,11.79,60.07,5.83,62.82,5.49,6.77-.52,7.66-6.26S438.68,356,428.13,352.52Z"/><path class="cls-12" d="M213.9,363a5.87,5.87,0,0,1-6,6c-3.48,0-6.65-2.69-6.65-6a6,6,0,0,1,6.15-6A6.31,6.31,0,0,1,213.9,363Z"/><path class="cls-12" d="M199.23,364.74c0,3.31-3,5.77-6.53,5.77a5.79,5.79,0,0,1-6.09-5.77,6.59,6.59,0,0,1,6.54-6.26A6.17,6.17,0,0,1,199.23,364.74Z"/><path class="cls-1" d="M154.84,377.17s0,1.45,0,4c0,1.27-.1,2.81-.2,4.58s-.25,3.76-.52,5.93c-.07.55-.15,1.1-.22,1.67s-.23,1.13-.34,1.72a8.12,8.12,0,0,1-.21.89l-.27.85-.57,1.76a41.68,41.68,0,0,0-2.24,15.87,81.62,81.62,0,0,0,1.3,8.54,52,52,0,0,1,1.29,8.61c0,2.89-.57,5.71-.59,8.36a16.05,16.05,0,0,0,.09,2c0,.32.07.64.11,1a7.36,7.36,0,0,0,.21.93c.07.31.15.61.23.91a2.25,2.25,0,0,0,.16.41,2.87,2.87,0,0,0,.21.36,6.29,6.29,0,0,0,1.22,1.26,29,29,0,0,0,6,3.42c2,.9,3.83,1.61,5.48,2.24s3.1,1.11,4.3,1.53c2.4.82,3.79,1.23,3.79,1.23l0,.08s-1.41-.32-3.87-1c-1.22-.33-2.7-.78-4.38-1.33s-3.58-1.23-5.59-2.08a26.53,26.53,0,0,1-6.24-3.43,7,7,0,0,1-1.4-1.46,4.13,4.13,0,0,1-.28-.47A3.61,3.61,0,0,1,152,445c-.09-.32-.17-.65-.25-1a8.36,8.36,0,0,1-.23-1l-.12-1a14.22,14.22,0,0,1-.08-2.07c.08-2.79.71-5.51.72-8.35a25.41,25.41,0,0,0-.35-4.23c-.18-1.43-.44-2.86-.65-4.29s-.45-2.87-.63-4.31-.32-2.87-.47-4.29a40.55,40.55,0,0,1,.19-8.41l.24-2c0-.33.07-.67.13-1s.14-.66.2-1c.15-.64.25-1.3.44-1.92s.41-1.21.61-1.8a33.82,33.82,0,0,0,1.61-6.76c.3-2.14.48-4.12.65-5.88s.28-3.29.4-4.56c.2-2.53.31-4,.31-4Z"/><path class="cls-12" d="M386.34,363c0,3.32,3.25,6,6.74,6a5.8,5.8,0,0,0,5.88-6,6,6,0,0,0-6.31-6A6.17,6.17,0,0,0,386.34,363Z"/><path class="cls-12" d="M401,364.74c0,3.31,2.83,5.8,6.31,5.8s6.31-2.49,6.31-5.8-3.23-6.29-6.72-6.29A6.06,6.06,0,0,0,401,364.74Z"/><path class="cls-1" d="M471.06,378.7c0-.45-.05-.91-.12-1.35l-.31-1.3c-.14-.42-.3-.82-.45-1.23a38,38,0,0,0-2.32-4.46,32,32,0,0,1-1.73-4.53,37,37,0,0,0-4.42-9.13l-1.51-2.08c-.51-.67-1.07-1.27-1.6-1.91l-.81-.94-.2-.24c-.12-.13-.17-.17-.25-.25l-.46-.45c-.3-.3-.6-.61-.92-.9l-1-.83a38,38,0,0,0-8.62-5.32,47.5,47.5,0,0,0-9.24-3.15Q433.4,330.35,429,320.4c-3-6.73-6.21-13.39-9.84-19.83a116,116,0,0,0-12.47-18.37,47.94,47.94,0,0,0-8.15-7.69c-.77-.55-1.57-1.05-2.36-1.57s-1.72-.92-2.57-1.34l-1.29-.5-.64-.25-.17-.06-.13-.05-.08,0-.33-.1-2.7-.74a134.07,134.07,0,0,0-21.92-3.48c-7.37-.62-14.74-.91-22.11-1s-14.75,0-22.11.08-14.72.3-22.08.34h0c-7.36,0-14.71-.25-22.08-.34s-14.73-.19-22.11-.08-14.74.4-22.11,1a134.07,134.07,0,0,0-21.92,3.48l-2.69.74-.34.1-.09,0-.12.05-.17.06-.64.25-1.29.5c-.85.42-1.73.88-2.57,1.34s-1.59,1-2.36,1.57a47.57,47.57,0,0,0-8.15,7.69,115.34,115.34,0,0,0-12.47,18.37c-3.63,6.44-6.84,13.1-9.84,19.83s-5.68,13.38-8.18,20.23a47.5,47.5,0,0,0-9.24,3.15A38,38,0,0,0,145,349.1l-1,.83c-.32.29-.61.6-.92.9l-.46.45-.25.25-.2.24-.81.94c-.53.64-1.09,1.24-1.6,1.91l-1.51,2.08a37,37,0,0,0-4.42,9.13,32,32,0,0,1-1.73,4.53,38,38,0,0,0-2.32,4.46c-.15.41-.31.81-.45,1.23l-.31,1.3c-.07.44-.08.9-.12,1.35,0,.13,0,.2,0,.37l0,.31,0,.62.17,2.48c.09.83.22,1.67.33,2.51.46,3.34,1.19,6.57,1.91,9.82s1.56,6.46,2.26,9.67c.14.81.3,1.59.43,2.41l.35,2.46.73,4.92c.5,3.29,1,6.55,1.24,9.82,0,.75.05,1.65,0,2.44s-.08,1.59-.17,2.42l-.5,4.93c-.17,1.66-.32,3.32-.36,5a19.87,19.87,0,0,0,.08,2.55c0,.43.06.86.12,1.29l.21,1.23a31.36,31.36,0,0,0,1.18,4.94,9.22,9.22,0,0,0,2.9,4.45,3.92,3.92,0,0,0,.58.39l.31.17.08,0,0,0,.07,0,.14.06.58.23.63.2c.86.28,1.63.46,2.45.69,1.62.42,3.23.81,4.85,1.18,6.47,1.52,13,2.89,19.46,4.22h0l.51.1.35-.42a30.11,30.11,0,0,1,6-5.51,20.71,20.71,0,0,1,3.55-1.93,12.45,12.45,0,0,1,3.82-.86,4.51,4.51,0,0,1,1,0l.48,0h.2l.26.05a20.15,20.15,0,0,1,2,.45c.64.16,1.29.35,1.95.58s1.32.43,2,.68c2.63.94,5.24,2,7.88,3s5.28,2,8,2.94c1.34.47,2.71.86,4.07,1.29s2.74.79,4.14,1.09a58.68,58.68,0,0,0,8.47,1.4c2.9.22,5.69.22,8.51.3L300,465.41h0l67.72-1.58c2.82-.08,5.62-.08,8.51-.3a58.68,58.68,0,0,0,8.47-1.4c1.4-.3,2.76-.72,4.14-1.09s2.73-.82,4.07-1.29c2.7-.9,5.34-1.92,8-2.94s5.25-2.09,7.88-3c.66-.25,1.32-.47,2-.68s1.31-.42,2-.58a20.15,20.15,0,0,1,2-.45L415,452h.2l.48,0a4.5,4.5,0,0,1,1,0,12.45,12.45,0,0,1,3.82.86,20.71,20.71,0,0,1,3.55,1.93,30.11,30.11,0,0,1,6,5.51l.35.42.51-.1h0c6.5-1.33,13-2.7,19.46-4.22,1.62-.37,3.23-.76,4.85-1.18.82-.23,1.59-.41,2.45-.69l.63-.2.58-.23L459,454l.08,0,0,0,.08,0,.31-.17a3.92,3.92,0,0,0,.58-.39,9.22,9.22,0,0,0,2.9-4.45,31.36,31.36,0,0,0,1.18-4.94l.21-1.23c.06-.43.08-.86.13-1.29a19.83,19.83,0,0,0,.06-2.55c0-1.7-.18-3.36-.35-5l-.5-4.93c-.09-.83-.11-1.61-.17-2.42s0-1.69,0-2.44c.28-3.27.74-6.53,1.24-9.82l.73-4.92.35-2.46c.13-.82.29-1.6.43-2.41.7-3.21,1.52-6.43,2.26-9.67s1.45-6.48,1.9-9.82c.12-.84.25-1.68.34-2.51L471,380l0-.62,0-.31C471.08,378.9,471.07,378.83,471.06,378.7Zm-1.49.6,0,.62-.14,2.48c-.07.81-.19,1.61-.29,2.42-.39,3.23-1.06,6.49-1.76,9.71s-1.52,6.44-2.21,9.71c-.31,1.67-.56,3.3-.79,4.94l-.75,4.91c-.52,3.27-1,6.57-1.3,9.9,0,.9-.06,1.67,0,2.53s.07,1.72.16,2.54l.48,5c.16,1.64.3,3.28.32,4.9a16.09,16.09,0,0,1-.08,2.41c0,.39-.06.78-.11,1.18l-.21,1.22a31.45,31.45,0,0,1-1.15,4.71,7.83,7.83,0,0,1-2.43,3.77,2.21,2.21,0,0,1-.45.3l-.23.13-.24.1-.58.23-.55.16c-.72.24-1.56.44-2.34.65-1.59.41-3.2.79-4.81,1.15-6.3,1.39-12.64,2.64-19,3.85a31.49,31.49,0,0,0-6.06-5.47,22.32,22.32,0,0,0-3.88-2.11,14.46,14.46,0,0,0-4.39-1,8.83,8.83,0,0,0-1.15,0l-.57,0a2.35,2.35,0,0,0-.33,0l-.26.05a21.38,21.38,0,0,0-2.1.45q-1.09.29-2.1.63c-.69.22-1.37.45-2,.69-2.68,1-5.3,2-7.93,3.05s-5.24,2-7.9,2.91c-1.33.47-2.67.85-4,1.28s-2.69.77-4.05,1.06a57.52,57.52,0,0,1-8.22,1.36c-2.73.21-5.59.22-8.41.29L300,463.66h0l-67.67-1.59c-2.82-.07-5.68-.08-8.41-.29a57.52,57.52,0,0,1-8.22-1.36c-1.36-.29-2.7-.71-4.05-1.06s-2.67-.81-4-1.28c-2.66-.88-5.28-1.89-7.9-2.91s-5.25-2.08-7.93-3.05c-.66-.24-1.34-.47-2-.69s-1.37-.44-2.1-.63a21.38,21.38,0,0,0-2.1-.45l-.26-.05a2.35,2.35,0,0,0-.33,0l-.57,0a8.83,8.83,0,0,0-1.15,0,14.59,14.59,0,0,0-4.4,1,22.59,22.59,0,0,0-3.87,2.11,31.49,31.49,0,0,0-6.06,5.47c-6.34-1.21-12.68-2.46-19-3.85-1.61-.36-3.22-.74-4.81-1.15-.78-.21-1.62-.41-2.34-.65l-.55-.16-.58-.23-.24-.1-.23-.13a2.21,2.21,0,0,1-.45-.3,7.83,7.83,0,0,1-2.43-3.77,31.45,31.45,0,0,1-1.15-4.71l-.21-1.22c-.05-.4-.07-.79-.12-1.18a17.55,17.55,0,0,1-.07-2.41c0-1.62.16-3.26.32-4.9l.48-5c.09-.82.11-1.69.16-2.54s0-1.63,0-2.53c-.3-3.33-.78-6.63-1.3-9.9l-.75-4.91c-.24-1.64-.48-3.27-.79-4.94-.69-3.27-1.49-6.48-2.21-9.71s-1.37-6.48-1.76-9.71c-.1-.81-.22-1.61-.29-2.42l-.14-2.48,0-.62,0-.31,0-.25c0-.38,0-.75.12-1.12l.29-1.12.41-1.09a23.89,23.89,0,0,1,1.07-2.15c.39-.7.82-1.38,1.27-2.16a34.42,34.42,0,0,0,1.89-4.72,35,35,0,0,1,4.26-8.68l1.41-1.94c.5-.64,1.07-1.26,1.6-1.89l.82-.94.2-.23.19-.19.42-.43.85-.85.91-.78a39.77,39.77,0,0,1,8.17-5.24,57.37,57.37,0,0,1,9.12-3.54l.33-.09.08-.28h0c2.41-6.93,5.22-13.74,8.21-20.45a219.16,219.16,0,0,1,10-19.62,114.28,114.28,0,0,1,12.52-18,48.18,48.18,0,0,1,7.92-7.4c.73-.51,1.49-1,2.24-1.47s1.53-.82,2.32-1.21l1.29-.49.64-.25.17-.06,0,0,.07,0,.33-.09,2.63-.74A132.79,132.79,0,0,1,233.85,268c7.3-.71,14.64-1.08,22-1.28s14.71-.22,22.07-.15,14.72.23,22.09.24h0c7.37,0,14.73-.18,22.09-.24s14.72,0,22.07.15,14.69.57,22,1.28a133,133,0,0,1,21.63,3.55l2.63.74.33.09.07,0,0,0,.16.06.65.25,1.29.49c.79.39,1.55.79,2.32,1.21s1.51,1,2.24,1.47a48.18,48.18,0,0,1,7.92,7.4,114.28,114.28,0,0,1,12.52,18,219.16,219.16,0,0,1,10,19.62c3,6.71,5.8,13.52,8.2,20.45h0l.09.28.33.09a57.37,57.37,0,0,1,9.12,3.54,39.77,39.77,0,0,1,8.17,5.24l.91.78c.29.28.56.57.85.85l.42.43.19.19.2.23.82.94c.53.63,1.1,1.25,1.6,1.89l1.41,1.94a35,35,0,0,1,4.26,8.68,34.42,34.42,0,0,0,1.89,4.72c.45.78.88,1.46,1.27,2.16a23.89,23.89,0,0,1,1.07,2.15l.42,1.09.28,1.12c.07.37.07.74.12,1.12l0,.25Z"/><path class="cls-1" d="M392.53,280.82c-24-11.67-92.53-9.91-92.53-9.91s-68.54-1.76-92.53,9.91c-19.29,9.37-33.11,45.78-25.24,55.92C186.89,342.74,300,341,300,341s113.11,1.71,117.77-4.29C425.63,326.6,411.82,290.19,392.53,280.82Z"/><path class="cls-1" d="M445.49,377.17s.11,1.44.31,4c.12,1.27.21,2.8.39,4.56s.36,3.74.66,5.88a33.14,33.14,0,0,0,1.61,6.76q.3.89.6,1.8c.19.62.29,1.28.44,1.92l.21,1c.05.33.08.67.13,1,.08.67.15,1.34.23,2a40.54,40.54,0,0,1,.2,8.41c-.15,1.42-.24,2.86-.48,4.29s-.39,2.87-.63,4.31-.47,2.86-.65,4.29a26.52,26.52,0,0,0-.35,4.23c0,2.84.65,5.56.72,8.35a13,13,0,0,1-.07,2.07l-.12,1c0,.34-.16.66-.23,1s-.17.66-.25,1a3.5,3.5,0,0,1-.2.49,3,3,0,0,1-.28.47,7,7,0,0,1-1.4,1.46,26.68,26.68,0,0,1-6.23,3.43c-2,.85-3.9,1.53-5.59,2.08s-3.16,1-4.39,1.33c-2.45.68-3.87,1-3.87,1l0-.08s1.39-.41,3.79-1.23c1.2-.42,2.66-.91,4.31-1.53s3.51-1.34,5.48-2.24a29.27,29.27,0,0,0,6-3.42,6.23,6.23,0,0,0,1.21-1.26,2,2,0,0,0,.22-.36,2.25,2.25,0,0,0,.16-.41c.08-.3.15-.61.23-.91a7.36,7.36,0,0,0,.21-.93c0-.32.07-.64.11-1a18.31,18.31,0,0,0,.09-2c0-2.65-.64-5.47-.59-8.36a52.91,52.91,0,0,1,1.28-8.61,77,77,0,0,0,1.3-8.54,41.43,41.43,0,0,0-2.23-15.87l-.57-1.76-.28-.85a6.25,6.25,0,0,1-.2-.89c-.12-.59-.26-1.16-.34-1.72s-.15-1.12-.22-1.67c-.27-2.17-.43-4.16-.52-5.93s-.17-3.31-.2-4.58c-.07-2.54-.05-4-.05-4Z"/><path class="cls-1" d="M163.77,451.91s.76-.79,2.31-2.14a63.32,63.32,0,0,1,7.11-5.38,48.84,48.84,0,0,1,5.54-3.14,32,32,0,0,1,7.14-2.4l2-.28c.7-.05,1.41,0,2.14-.05,1.44,0,2.88.2,4.38.29l9.4.82,10.21.93,10.94.84c3.75.35,7.61.44,11.56.64l6,.27,6.11.18,25.33.67,26.15.46,26.16-.46,25.33-.67,6.1-.18,6-.27c3.95-.2,7.83-.3,11.57-.64l10.93-.84,10.22-.93c3.27-.3,6.41-.58,9.4-.81,1.51-.1,2.92-.25,4.39-.29.71,0,1.41,0,2.1,0l2.07.28a36.94,36.94,0,0,1,12.69,5.54,64.25,64.25,0,0,1,7.1,5.38c1.55,1.35,2.32,2.14,2.32,2.14s-.79-.77-2.37-2.08a63.36,63.36,0,0,0-7.21-5.2,50,50,0,0,0-5.57-3,31.91,31.91,0,0,0-7.06-2.19l-2-.22c-.68,0-1.39,0-2.09,0-1.37.06-2.86.26-4.34.39l-9.39.82-10.22.93-10.95.85c-3.76.34-7.63.44-11.58.64l-6,.27-6.12.17-25.33.68-26.16.45L274,444l-25.33-.68-6.11-.17-6-.27c-4-.2-7.84-.3-11.59-.64l-11-.85-10.21-.93-9.4-.82c-1.49-.13-3-.32-4.35-.39-.69,0-1.38,0-2.05,0l-2,.23a30.74,30.74,0,0,0-7.06,2.19,49.42,49.42,0,0,0-5.58,3,63.2,63.2,0,0,0-7.21,5.19C164.55,451.14,163.77,451.91,163.77,451.91Z"/><path class="cls-1" d="M302.86,410H265.09a2.8,2.8,0,0,0-2.86,2.72V435.5a2.8,2.8,0,0,0,2.86,2.72h69.82a2.8,2.8,0,0,0,2.86-2.72V412.72a2.8,2.8,0,0,0-2.86-2.72Z"/><path class="cls-11" d="M302.86,410H273a2.79,2.79,0,0,0-2.86,2.72V439a2.8,2.8,0,0,0,2.86,2.72h54.09a2.81,2.81,0,0,0,2.86-2.72v-26.3a2.8,2.8,0,0,0-2.86-2.72Z"/><rect class="cls-10" x="271.17" y="411.2" width="57.67" height="4.47"/><path class="cls-1" d="M327.05,411.67a1.13,1.13,0,0,1,1.18,1.05V439a1.13,1.13,0,0,1-1.18,1H273a1.14,1.14,0,0,1-1.19-1v-26.3a1.14,1.14,0,0,1,1.19-1.05h54.09m0-1.67H273a2.79,2.79,0,0,0-2.86,2.72V439a2.8,2.8,0,0,0,2.86,2.72h54.09a2.81,2.81,0,0,0,2.86-2.72v-26.3a2.8,2.8,0,0,0-2.86-2.72Z"/><path class="cls-1" d="M394.09,458.06c0,9,8.25,16.32,18.43,16.32S431,467.08,431,458.06s-8.25-16.32-18.43-16.32S394.09,449.05,394.09,458.06Z"/><path class="cls-11" d="M403.81,458.06a12.77,12.77,0,1,0,12.77-12.62A12.69,12.69,0,0,0,403.81,458.06Z"/><path class="cls-1" d="M403.92,457.3a11.85,11.85,0,1,0,11.85-11.71A11.79,11.79,0,0,0,403.92,457.3Z"/><path class="cls-13" d="M409.13,326c-.63-3.28-6-23.14-19.79-32.83-17.82-12.49-71.93-11.65-71.93-11.65s1.4,5.21.26,5.62c-1.56.55-17.67.59-17.67.59s-16.11,0-17.67-.59c-1.14-.41.26-5.62.26-5.62s-54.11-.84-71.93,11.65c-13.83,9.69-19.15,29.55-19.79,32.83s15.34,3.71,15.34,3.71,10.64-22.23,15.83-22.23H244.7c5.19,0,16,22.23,16,22.23L300,330l39.26-.26s10.85-22.23,16-22.23H378c5.19,0,15.83,22.23,15.83,22.23S409.76,329.29,409.13,326Z"/><polygon class="cls-1" points="195.07 301.34 199.15 288.67 253.3 272.78 257 275.93 195.07 301.34"/></svg>